<?xml version="1.0" encoding="UTF-8" standalone="no"?>
<!-- Created with Inkscape (http://www.inkscape.org/) -->

<svg
   width="4.3301268cm"
   height="5cm"
   viewBox="0 0 43.301268 50"
   version="1.1"
   id="svg1"
   xml:space="preserve"
   inkscape:version="1.3.2 (091e20e, 2023-11-25)"
   sodipodi:docname="DatabaseSpecialty.svg"
   inkscape:export-filename="DatabaseSpecialty.png"
   inkscape:export-xdpi="586.58789"
   inkscape:export-ydpi="586.58789"
   xmlns:inkscape="http://www.inkscape.org/namespaces/inkscape"
   xmlns:sodipodi="http://sodipodi.sourceforge.net/DTD/sodipodi-0.dtd"
   xmlns:xlink="http://www.w3.org/1999/xlink"
   xmlns="http://www.w3.org/2000/svg"
   xmlns:svg="http://www.w3.org/2000/svg"><sodipodi:namedview
     id="namedview1"
     pagecolor="#ffffff"
     bordercolor="#000000"
     borderopacity="0.25"
     inkscape:showpageshadow="2"
     inkscape:pageopacity="0.0"
     inkscape:pagecheckerboard="true"
     inkscape:deskcolor="#d1d1d1"
     inkscape:document-units="mm"
     inkscape:zoom="2"
     inkscape:cx="72.5"
     inkscape:cy="105"
     inkscape:window-width="1560"
     inkscape:window-height="719"
     inkscape:window-x="114"
     inkscape:window-y="25"
     inkscape:window-maximized="0"
     inkscape:current-layer="layer1" /><defs
     id="defs1"><linearGradient
       id="linearGradient13"
       inkscape:collect="always"><stop
         style="stop-color:#5534bb;stop-opacity:1;"
         offset="0"
         id="stop12" /><stop
         style="stop-color:#341185;stop-opacity:1;"
         offset="1"
         id="stop13" /></linearGradient><rect
       x="47"
       y="68.5"
       width="94.5"
       height="49"
       id="rect3" /><linearGradient
       inkscape:collect="always"
       xlink:href="#linearGradient13"
       id="linearGradient3-3"
       x1="7.0857415"
       y1="-1.946265"
       x2="19.172882"
       y2="15.440015"
       gradientUnits="userSpaceOnUse" /></defs><g
     inkscape:label="Print"
     inkscape:groupmode="layer"
     id="layer1"
     transform="translate(-3.3500014)"><path
       id="path1-00"
       style="display:inline;fill:url(#linearGradient3-3);stroke:#7b78fa;stroke-width:1.22597"
       inkscape:label="bg-purple"
       transform="matrix(2.0392038,0,0,2.0392038,-1.7065602,11.241748)"
       d="M 23.101091,12.522811 13.096875,18.298748 3.0926595,12.522811 3.0926596,0.97093816 13.096875,-4.8049984 23.101091,0.97093825 Z" /><path
       id="path3"
       style="opacity:1;fill:none;fill-opacity:1;stroke:#ffffff;stroke-width:0.352778;stroke-dasharray:none;stroke-opacity:1"
       inkscape:label="hr1"
       d="M 12.499831 17.876945 L 37.499855 17.876945 L 12.499831 17.876945 z M 12.499831 31.176392 L 37.499855 31.176392 L 12.499831 31.176392 z " /><path
       d="m 14.696374,34.731327 q -0.251177,-0.09313 -0.361244,-0.225777 -0.110066,-0.135467 -0.110066,-0.341489 0,-0.265288 0.194733,-0.423333 0.197555,-0.158044 0.527755,-0.158044 0.276577,0 0.541866,0.1016 v 0.321733 q -0.273755,-0.08467 -0.508,-0.08467 -0.333021,0 -0.333021,0.214489 0,0.07902 0.05644,0.129822 0.05927,0.0508 0.217311,0.107244 l 0.208844,0.0762 q 0.262467,0.09596 0.372533,0.225778 0.112889,0.127 0.112889,0.333022 0,0.290689 -0.208844,0.460022 -0.208845,0.166511 -0.572911,0.166511 -0.158044,0 -0.316089,-0.03105 -0.158044,-0.02822 -0.270933,-0.07902 v -0.321733 q 0.141111,0.04233 0.301978,0.06773 0.160866,0.0254 0.290688,0.0254 0.166511,0 0.256823,-0.05927 0.09031,-0.06209 0.09031,-0.174978 0,-0.08749 -0.05645,-0.138289 -0.05362,-0.0508 -0.220133,-0.112888 z m 2.475791,0.141111 v 0.714022 h -0.412044 v -1.955798 h 0.747888 q 0.3048,0 0.4826,0.166511 0.1778,0.166511 0.1778,0.454377 0,0.287866 -0.1778,0.454377 -0.1778,0.166511 -0.4826,0.166511 z m 0,-0.316088 h 0.287866 q 0.141111,0 0.214489,-0.0762 0.0762,-0.07902 0.0762,-0.2286 0,-0.149578 -0.0762,-0.225778 -0.07338,-0.07902 -0.214489,-0.07902 h -0.287866 z m 2.128658,1.03011 v -1.955798 h 1.286933 v 0.327377 h -0.8636 v 0.462844 h 0.702733 v 0.327378 h -0.702733 v 0.510822 h 0.8636 v 0.327377 z m 3.790944,-0.0508 q -0.228599,0.08749 -0.510821,0.08749 -0.476956,0 -0.722489,-0.254 -0.245533,-0.256822 -0.245533,-0.75071 0,-0.488244 0.256822,-0.756355 0.256822,-0.268111 0.722488,-0.268111 0.248356,0 0.471311,0.07902 v 0.333022 q -0.256822,-0.05644 -0.420511,-0.05644 -0.293511,0 -0.440266,0.155223 -0.143933,0.155222 -0.143933,0.474133 v 0.06491 q 0,0.316088 0.141111,0.47131 0.141111,0.1524 0.4318,0.1524 0.163688,0 0.460021,-0.06491 z m 1.118305,0.0508 v -1.955798 h 0.423333 v 1.955798 z m 2.853973,0 -0.138289,-0.445911 H 26.25689 l -0.132644,0.445911 h -0.443089 l 0.688622,-1.955798 h 0.465666 l 0.688622,1.955798 z m -0.716844,-0.75071 h 0.491066 l -0.248355,-0.818444 z m 2.213329,0.75071 v -1.955798 h 0.423333 v 1.617132 h 0.857955 v 0.338666 z m 2.588682,0 v -1.617132 h -0.595489 v -0.338666 h 1.61431 v 0.338666 h -0.595488 v 1.617132 z m 2.60562,0 v -0.722488 l -0.646288,-1.23331 h 0.465666 l 0.400755,0.914399 0.412044,-0.914399 h 0.443089 l -0.657577,1.238954 v 0.716844 z"
       id="text5"
       style="font-weight:bold;font-size:2.82222px;line-height:0.9;font-family:'Amazon Ember';-inkscape-font-specification:'Amazon Ember, Bold';text-align:center;letter-spacing:0.79375px;text-anchor:middle;fill:#f7f7f7;stroke-width:0.352777"
       inkscape:label="subtitle"
       aria-label="SPECIALTY" /><path
       d="m 14.579348,25.830536 v -3.422651 h 1.229784 q 0.765528,0 1.175456,0.4445 0.414866,0.439561 0.414866,1.264356 0,0.819856 -0.414866,1.269295 -0.409928,0.4445 -1.16064,0.4445 z m 0.740834,-2.84974 v 2.276829 h 0.424744 q 0.893939,0 0.893939,-1.091495 v -0.09878 q 0,-1.086556 -0.898878,-1.086556 z m 4.168425,2.84974 -0.05927,-0.22225 q -0.153105,0.138289 -0.3556,0.22225 -0.197555,0.07902 -0.385233,0.07902 -0.365478,0 -0.587728,-0.207433 -0.217311,-0.207434 -0.217311,-0.553156 0,-0.237067 0.118533,-0.414867 0.118534,-0.182739 0.340784,-0.286455 0.22225,-0.103717 0.523522,-0.103717 0.237067,0 0.523522,0.06421 v -0.246945 q 0,-0.227189 -0.09384,-0.31115 -0.09384,-0.08396 -0.345722,-0.08396 -0.404989,0 -0.893939,0.153105 v -0.479072 q 0.182739,-0.09384 0.459317,-0.148167 0.276578,-0.05927 0.563033,-0.05927 0.508706,0 0.740834,0.207433 0.237066,0.202495 0.237066,0.642056 v 1.748367 z m -0.597606,-0.404989 q 0.123473,0 0.251884,-0.05433 0.13335,-0.05433 0.246944,-0.148167 v -0.429683 q -0.217311,-0.03457 -0.390172,-0.03457 -0.429683,0 -0.429683,0.345722 0,0.153106 0.08396,0.237067 0.08396,0.08396 0.237066,0.08396 z m 3.348566,0.340783 q -0.266701,0.103717 -0.597606,0.103717 -0.419806,0 -0.6223,-0.197556 -0.197556,-0.197555 -0.197556,-0.612422 v -1.219906 h -0.380294 v -0.4445 l 0.40005,-0.07902 0.108655,-0.691445 h 0.592667 v 0.681567 h 0.681567 v 0.5334 h -0.681567 v 1.185334 q 0,0.158044 0.07902,0.22225 0.07902,0.06421 0.2667,0.06421 0.153106,0 0.350662,-0.02963 z m 1.89159,0.06421 -0.05927,-0.22225 q -0.153106,0.138289 -0.3556,0.22225 -0.197556,0.07902 -0.385234,0.07902 -0.365478,0 -0.587728,-0.207433 -0.217311,-0.207434 -0.217311,-0.553156 0,-0.237067 0.118533,-0.414867 0.118534,-0.182739 0.340784,-0.286455 0.22225,-0.103717 0.523522,-0.103717 0.237067,0 0.523522,0.06421 v -0.246945 q 0,-0.227189 -0.09384,-0.31115 -0.09384,-0.08396 -0.345723,-0.08396 -0.404989,0 -0.893939,0.153105 v -0.479072 q 0.182739,-0.09384 0.459317,-0.148167 0.276578,-0.05927 0.563033,-0.05927 0.508706,0 0.740834,0.207433 0.237067,0.202495 0.237067,0.642056 v 1.748367 z m -0.597605,-0.404989 q 0.123472,0 0.251883,-0.05433 0.13335,-0.05433 0.246944,-0.148167 v -0.429683 q -0.217311,-0.03457 -0.390172,-0.03457 -0.429683,0 -0.429683,0.345722 0,0.153106 0.08396,0.237067 0.08396,0.08396 0.237067,0.08396 z m 1.847142,0.404989 v -3.654779 h 0.721078 v 1.323623 q 0.143228,-0.123472 0.335844,-0.192617 0.192617,-0.07408 0.380295,-0.07408 0.479072,0 0.75565,0.350661 0.281517,0.350661 0.281517,0.948267 0,0.390172 -0.128411,0.696383 -0.128411,0.306211 -0.370417,0.484012 -0.242006,0.172861 -0.558095,0.172861 -0.227189,0 -0.424744,-0.07902 -0.197556,-0.07902 -0.330906,-0.22225 l -0.0642,0.246945 z m 1.205089,-2.054578 q -0.256822,0 -0.484011,0.13335 v 1.298928 q 0.217311,0.13335 0.484011,0.13335 0.276578,0 0.404989,-0.187678 0.13335,-0.187678 0.13335,-0.592667 0,-0.409928 -0.128411,-0.597606 -0.128411,-0.187677 -0.409928,-0.187677 z m 3.279422,2.054578 -0.05927,-0.22225 q -0.153105,0.138289 -0.3556,0.22225 -0.197555,0.07902 -0.385233,0.07902 -0.365478,0 -0.587728,-0.207433 -0.217311,-0.207434 -0.217311,-0.553156 0,-0.237067 0.118533,-0.414867 0.118534,-0.182739 0.340784,-0.286455 0.22225,-0.103717 0.523522,-0.103717 0.237067,0 0.523522,0.06421 v -0.246945 q 0,-0.227189 -0.09384,-0.31115 -0.09384,-0.08396 -0.345722,-0.08396 -0.404989,0 -0.893939,0.153105 v -0.479072 q 0.182739,-0.09384 0.459317,-0.148167 0.276578,-0.05927 0.563033,-0.05927 0.508706,0 0.740834,0.207433 0.237067,0.202495 0.237067,0.642056 v 1.748367 z m -0.597606,-0.404989 q 0.123473,0 0.251884,-0.05433 0.13335,-0.05433 0.246944,-0.148167 v -0.429683 q -0.217311,-0.03457 -0.390172,-0.03457 -0.429683,0 -0.429683,0.345722 0,0.153106 0.08396,0.237067 0.08396,0.08396 0.237066,0.08396 z m 2.918881,-0.291395 q 0,-0.09878 -0.05927,-0.153105 -0.05433,-0.05433 -0.227189,-0.118534 l -0.385233,-0.153105 q -0.301272,-0.118533 -0.434622,-0.291395 -0.13335,-0.172861 -0.13335,-0.439561 0,-0.335844 0.2667,-0.538339 0.271639,-0.207433 0.721078,-0.207433 0.414866,0 0.765528,0.162983 v 0.479072 q -0.375356,-0.113594 -0.701323,-0.113594 -0.202494,0 -0.296333,0.04939 -0.09384,0.04939 -0.09384,0.158044 0,0.08396 0.05433,0.138289 0.05927,0.04939 0.242005,0.123473 l 0.375356,0.153105 q 0.306211,0.123472 0.434622,0.286456 0.13335,0.162983 0.13335,0.424744 0,0.365478 -0.281516,0.592667 -0.276578,0.22225 -0.730956,0.22225 -0.508706,0 -0.898878,-0.202494 v -0.479073 q 0.48895,0.153106 0.893939,0.153106 0.3556,0 0.3556,-0.246945 z m 1.664405,-0.390172 q 0.01976,0.325967 0.197556,0.474134 0.1778,0.143227 0.558094,0.143227 0.330906,0 0.770467,-0.123472 v 0.479072 q -0.172861,0.0889 -0.414866,0.138289 -0.237067,0.04939 -0.493889,0.04939 -0.627239,0 -0.958145,-0.340783 -0.325967,-0.340784 -0.325967,-0.997656 0,-0.632178 0.325967,-0.982839 0.325967,-0.350661 0.903817,-0.350661 0.48895,0 0.750711,0.271639 0.2667,0.2667 0.2667,0.765528 0,0.108655 -0.01482,0.246944 -0.01482,0.138289 -0.03457,0.227189 z m 0.538339,-1.012472 q -0.242005,0 -0.385233,0.148166 -0.138289,0.143228 -0.158045,0.419806 h 0.968023 v -0.08396 q 0,-0.484011 -0.424745,-0.484011 z"
       id="text3"
       style="font-weight:bold;font-size:4.93889px;line-height:0.9;font-family:'Amazon Ember';-inkscape-font-specification:'Amazon Ember, Bold';text-align:center;letter-spacing:0px;text-anchor:middle;fill:#f7f7f7;stroke-width:0.352777"
       inkscape:label="title"
       aria-label="Database" /><g
       id="g8"
       inkscape:label="Logo"
       transform="translate(0.13229167,-0.52916667)"><path
         id="path5"
         style="display:inline;opacity:1;fill:#f7981e;stroke-width:0.35742"
         inkscape:label="orange-hexagon"
         transform="matrix(0.97418587,0,0,1,21.151987,-12.964584)"
         d="m 10.608588,24.423128 -1.7450464,1.007503 -1.7450469,-1.007503 10e-8,-2.015007 1.7450468,-1.007503 1.7450464,1.007503 z" /><path
         style="opacity:1;fill:none;fill-opacity:1;stroke:#ffffff;stroke-width:0.353;stroke-dasharray:none;stroke-opacity:1"
         d="m 28.999218,10.605901 0.477496,0.49146 1.153947,-1.2475519"
         id="path7"
         sodipodi:nodetypes="ccc"
         inkscape:label="tick" /><path
         style="font-weight:300;font-size:3.88056px;font-family:'Amazon Ember';-inkscape-font-specification:'Amazon Ember Light';letter-spacing:0px;fill:#ffffff;stroke-width:2.5"
         d="m 19.594338,15.544447 q -0.240595,0.108656 -0.48507,0.108656 -0.450145,0 -0.682978,-0.256117 -0.232834,-0.259998 -0.232834,-0.76059 0,-0.496712 0.236714,-0.756709 0.236714,-0.263878 0.686859,-0.263878 0.240595,0 0.454026,0.09313 v 0.182386 q -0.213431,-0.06985 -0.442384,-0.06985 -0.368653,0 -0.535517,0.190148 -0.162984,0.186267 -0.162984,0.601487 v 0.04657 q 0,0.403578 0.166864,0.597606 0.166864,0.190148 0.523876,0.190148 0.213431,0 0.473428,-0.08537 z m 0.496711,-0.873126 q 0.0039,0.407459 0.178506,0.601487 0.174625,0.194028 0.539397,0.194028 0.333729,0 0.640293,-0.13582 v 0.182386 q -0.27552,0.155223 -0.655815,0.155223 -0.461787,0 -0.69462,-0.259998 -0.232834,-0.263878 -0.232834,-0.779992 0,-0.488951 0.232834,-0.756709 0.236714,-0.27164 0.659695,-0.27164 0.353131,0 0.539398,0.201789 0.190147,0.20179 0.190147,0.578204 0,0.174625 -0.02328,0.291042 z m 0.648053,-0.873126 q -0.613128,0 -0.648053,0.69462 h 1.17969 q 0.0039,-0.05433 0.0039,-0.128058 0,-0.279401 -0.13582,-0.422981 -0.13582,-0.143581 -0.399698,-0.143581 z M 21.977,15.610416 v -1.951921 h 0.194028 l 0.02328,0.283281 q 0.147461,-0.162984 0.287161,-0.228953 0.143581,-0.06985 0.322087,-0.06985 0.06597,0 0.159103,0.01164 v 0.197909 q -0.100895,-0.0078 -0.182386,-0.0078 -0.178506,0 -0.318206,0.06597 -0.13582,0.06597 -0.263878,0.213431 v 1.486254 z m 2.405948,-0.04269 q -0.162983,0.06597 -0.391936,0.06597 -0.228953,0 -0.349251,-0.120298 -0.120297,-0.124178 -0.120297,-0.357011 V 13.852523 H 23.156691 V 13.6973 l 0.372534,-0.03492 0.03104,-0.570442 h 0.182387 v 0.566562 h 0.620889 v 0.194028 h -0.620889 v 1.292226 q 0,0.159103 0.06597,0.225073 0.06985,0.06597 0.228953,0.06597 0.159103,0 0.34537,-0.04657 z m 0.42686,0.04269 V 13.658495 H 25.031 v 1.951921 z m 0.112536,-2.371022 q -0.07761,0 -0.124178,-0.04657 -0.04269,-0.04657 -0.04269,-0.124178 0,-0.07761 0.04269,-0.124178 0.04657,-0.04657 0.124178,-0.04657 0.07761,0 0.120297,0.04657 0.04657,0.04657 0.04657,0.124178 0,0.07761 -0.04657,0.124178 -0.04269,0.04657 -0.120297,0.04657 z m 0.892532,2.371022 V 13.852523 H 25.434581 V 13.6973 l 0.380295,-0.03492 v -0.446264 q 0,-0.259998 0.135819,-0.395817 0.13582,-0.13582 0.388056,-0.13582 0.09313,0 0.190148,0.0194 0.100894,0.01552 0.170744,0.04269 v 0.182387 q -0.194028,-0.04269 -0.333728,-0.04269 -0.174625,0 -0.252236,0.07373 -0.07761,0.06985 -0.07761,0.232834 v 0.465667 h 1.265063 v 1.951921 h -0.221192 v -1.757893 h -1.043871 v 1.757893 z m 1.377598,-2.371022 q -0.07761,0 -0.124178,-0.04657 -0.04269,-0.04657 -0.04269,-0.124178 0,-0.07761 0.04269,-0.124178 0.04657,-0.04657 0.124178,-0.04657 0.07761,0 0.120298,0.04657 0.04657,0.04657 0.04657,0.124178 0,0.07761 -0.04657,0.124178 -0.04269,0.04657 -0.120298,0.04657 z m 0.85372,1.431927 q 0.0039,0.407459 0.178506,0.601487 0.174625,0.194028 0.539397,0.194028 0.333729,0 0.640293,-0.13582 v 0.182386 q -0.27552,0.155223 -0.655815,0.155223 -0.461786,0 -0.69462,-0.259998 -0.232834,-0.263878 -0.232834,-0.779992 0,-0.488951 0.232834,-0.756709 0.236714,-0.27164 0.659695,-0.27164 0.353131,0 0.539398,0.201789 0.190147,0.20179 0.190147,0.578204 0,0.174625 -0.02328,0.291042 z m 0.648053,-0.873126 q -0.613128,0 -0.648053,0.69462 h 1.17969 q 0.0039,-0.05433 0.0039,-0.128058 0,-0.279401 -0.13582,-0.422981 -0.13582,-0.143581 -0.399698,-0.143581 z m 2.650422,1.812221 -0.02328,-0.217311 q -0.14358,0.120297 -0.322086,0.190147 -0.174625,0.06985 -0.337609,0.06985 -0.384175,0 -0.609248,-0.267759 -0.221192,-0.271639 -0.221192,-0.741187 0,-0.481189 0.225073,-0.76059 0.225072,-0.283281 0.613128,-0.283281 0.360892,0 0.651934,0.256117 v -1.117601 h 0.221192 v 2.871614 z m -0.632531,-0.159103 q 0.291042,0 0.609247,-0.248355 v -1.148646 q -0.162983,-0.131939 -0.314325,-0.190148 -0.147461,-0.06209 -0.314325,-0.06209 -0.310445,0 -0.473429,0.209551 -0.159103,0.20955 -0.159103,0.620889 0,0.818798 0.651935,0.818798 z"
         id="text2"
         inkscape:label="certified"
         aria-label="certified" /><path
         style="font-size:5.64444px;font-family:'Amazon Ember';-inkscape-font-specification:'Amazon Ember';letter-spacing:-0.132292px;fill:#ffffff;stroke-width:2.5"
         d="m 20.355982,12.038542 -0.04516,-0.293511 q -0.2032,0.174978 -0.451556,0.270933 -0.242711,0.09596 -0.485421,0.09596 -0.400756,0 -0.643467,-0.225778 -0.237066,-0.231422 -0.237066,-0.615244 0,-0.412044 0.293511,-0.654755 0.293511,-0.248355 0.790221,-0.248355 0.327378,0 0.7112,0.09596 V 10.09121 q 0,-0.3047998 -0.141111,-0.4289775 -0.135467,-0.1241777 -0.468489,-0.1241777 -0.479777,0 -0.993421,0.1749776 V 9.3179216 q 0.2032,-0.1072443 0.496711,-0.1636887 0.29351,-0.062089 0.592666,-0.062089 0.536222,0 0.790221,0.2257776 0.254,0.2201332 0.254,0.6773329 v 2.0432875 z m -0.846666,-0.349955 q 0.383822,0 0.778933,-0.287867 v -0.575733 q -0.293511,-0.07338 -0.598311,-0.07338 -0.637822,0 -0.637822,0.491067 0,0.214488 0.118534,0.333022 0.118533,0.112889 0.338666,0.112889 z m 4.270377,0.349955 -0.609599,-2.240843 -0.603955,2.240843 H 22.001695 L 21.064718,9.1768106 h 0.587021 l 0.643467,2.2916424 0.609599,-2.2916424 h 0.5588 l 0.609599,2.3198654 0.6604,-2.3198654 h 0.570088 l -0.959555,2.8617314 z m 3.203567,-0.767644 q 0,-0.135467 -0.09031,-0.220133 -0.08467,-0.08467 -0.316088,-0.169333 l -0.479778,-0.180623 q -0.626532,-0.231422 -0.626532,-0.7902212 0,-0.3668886 0.282222,-0.5926662 0.287866,-0.2257776 0.75071,-0.2257776 0.445911,0 0.841022,0.1806221 v 0.3951108 q -0.440267,-0.141111 -0.8128,-0.141111 -0.541866,0 -0.541866,0.3668886 0,0.1467555 0.09031,0.2314225 0.09031,0.08467 0.3556,0.186266 l 0.440266,0.169333 q 0.333022,0.129822 0.479778,0.310445 0.146755,0.174977 0.146755,0.457199 0,0.400755 -0.299155,0.637822 -0.299156,0.237066 -0.795866,0.237066 -0.5588,0 -0.970844,-0.214488 v -0.395111 q 0.530577,0.174978 0.982132,0.174978 0.276578,0 0.417689,-0.107245 0.146755,-0.107244 0.146755,-0.310444 z"
         id="text1"
         inkscape:label="aws"
         aria-label="aws" /></g></g><g
     inkscape:groupmode="layer"
     id="layer4"
     inkscape:label="Cut"
     style="display:inline"><path
       id="path1-2"
       style="display:none;vector-effect:non-scaling-stroke;fill:none;fill-opacity:1;stroke:#ff00ff;stroke-width:0.264583;stroke-dasharray:none;stroke-opacity:1;-inkscape-stroke:hairline"
       inkscape:label="cutline"
       d="M 21.389363,0.98598665 C 14.498698,4.9614938 7.6111125,8.9423822 0.71852718,12.914532 c 0,8.057245 2.1e-7,16.11449 0,24.171734 6.98026052,4.022507 13.95508782,8.054504 20.93370082,12.079893 6.977318,-4.025333 13.950754,-8.057441 20.929719,-12.079893 0,-8.057244 0,-16.114489 0,-24.171734 C 35.602984,8.8920775 28.629546,4.8599763 21.652228,0.8346396 l -0.176717,0.10174811 z" /></g></svg>
