<?xml version="1.0" encoding="UTF-8" standalone="no"?>
<!-- Created with Inkscape (http://www.inkscape.org/) -->

<svg
   width="4.3301268cm"
   height="5cm"
   viewBox="0 0 43.301268 50"
   version="1.1"
   id="svg1"
   xml:space="preserve"
   xmlns:xlink="http://www.w3.org/1999/xlink"
   xmlns="http://www.w3.org/2000/svg"
   xmlns:svg="http://www.w3.org/2000/svg"><defs
     id="defs1"><rect
       x="47"
       y="68.5"
       width="94.5"
       height="49"
       id="rect3" /><linearGradient
       id="linearGradient2"><stop
         style="stop-color:#3a3ef7;stop-opacity:1;"
         offset="0"
         id="stop2" /><stop
         style="stop-color:#061a83;stop-opacity:1;"
         offset="1"
         id="stop3" /></linearGradient><linearGradient
       xlink:href="#linearGradient2"
       id="linearGradient3-9"
       x1="7.0857415"
       y1="-1.946265"
       x2="19.172882"
       y2="15.440015"
       gradientUnits="userSpaceOnUse" /></defs><g
     id="layer1"
     transform="translate(-3.3500014)"><path
       id="path1-7"
       style="display:inline;fill:url(#linearGradient3-9);stroke:#3c93f9;stroke-width:1.22597"
       transform="matrix(2.0392038,0,0,2.0392038,-1.7065602,11.241748)"
       d="M 23.101091,12.522811 13.096875,18.298748 3.0926595,12.522811 3.0926596,0.97093816 13.096875,-4.8049984 23.101091,0.97093825 Z" /><path
       style="opacity:1;fill:none;fill-opacity:1;stroke:#ffffff;stroke-width:0.352778;stroke-dasharray:none;stroke-opacity:1"
       d="m 12.5,17.876785 h 25"
       id="path3" /><path
       style="fill:none;fill-opacity:1;stroke:#ffffff;stroke-width:0.352778;stroke-dasharray:none;stroke-opacity:1"
       d="m 12.5,31.176389 h 25"
       id="path3-3" /><path
       d="M 15.18744,35.58646 15.049151,35.140549 H 14.380285 L 14.24764,35.58646 h -0.443088 l 0.688621,-1.955798 h 0.465667 l 0.688621,1.955798 z m -0.716844,-0.75071 h 0.491066 l -0.248355,-0.818444 z m 2.594329,-0.104423 q -0.251178,-0.09313 -0.361245,-0.225777 -0.110066,-0.135467 -0.110066,-0.341489 0,-0.265288 0.194733,-0.423333 0.197555,-0.158044 0.527755,-0.158044 0.276578,0 0.541866,0.1016 v 0.321733 q -0.273755,-0.08467 -0.507999,-0.08467 -0.333022,0 -0.333022,0.214489 0,0.07902 0.05644,0.129822 0.05927,0.0508 0.217311,0.107244 l 0.208845,0.0762 q 0.262466,0.09596 0.372533,0.225778 0.112888,0.127 0.112888,0.333022 0,0.290689 -0.208844,0.460022 -0.208844,0.166511 -0.572911,0.166511 -0.158044,0 -0.316088,-0.03105 -0.158045,-0.02822 -0.270933,-0.07902 v -0.321733 q 0.141111,0.04233 0.301977,0.06773 0.160867,0.0254 0.290689,0.0254 0.166511,0 0.256822,-0.05927 0.09031,-0.06209 0.09031,-0.174978 0,-0.08749 -0.05644,-0.138289 -0.05362,-0.0508 -0.220134,-0.112888 z m 2.416523,0 q -0.251178,-0.09313 -0.361244,-0.225777 -0.110067,-0.135467 -0.110067,-0.341489 0,-0.265288 0.194734,-0.423333 0.197555,-0.158044 0.527755,-0.158044 0.276577,0 0.541866,0.1016 v 0.321733 q -0.273755,-0.08467 -0.508,-0.08467 -0.333022,0 -0.333022,0.214489 0,0.07902 0.05645,0.129822 0.05927,0.0508 0.217311,0.107244 l 0.208844,0.0762 q 0.262466,0.09596 0.372533,0.225778 0.112889,0.127 0.112889,0.333022 0,0.290689 -0.208844,0.460022 -0.208845,0.166511 -0.572911,0.166511 -0.158044,0 -0.316089,-0.03105 -0.158044,-0.02822 -0.270933,-0.07902 v -0.321733 q 0.141111,0.04233 0.301978,0.06773 0.160866,0.0254 0.290688,0.0254 0.166511,0 0.256822,-0.05927 0.09031,-0.06209 0.09031,-0.174978 0,-0.08749 -0.05644,-0.138289 -0.05362,-0.0508 -0.220133,-0.112888 z m 2.413701,-0.124177 q 0,0.333022 0.132644,0.507999 0.132645,0.174978 0.386644,0.174978 0.254,0 0.386644,-0.174978 0.132645,-0.174977 0.132645,-0.507999 0,-0.333022 -0.132645,-0.505178 -0.132644,-0.174977 -0.386644,-0.174977 -0.253999,0 -0.386644,0.174977 -0.132644,0.172156 -0.132644,0.505178 z m -0.434622,0 q 0,-0.310444 0.110067,-0.541867 0.112888,-0.231422 0.327377,-0.355599 0.217311,-0.127 0.516466,-0.127 0.290689,0 0.505178,0.121355 0.214488,0.121356 0.330199,0.352778 0.118534,0.2286 0.118534,0.550333 0,0.310444 -0.112889,0.541866 -0.110067,0.231422 -0.327378,0.358422 -0.214488,0.127 -0.513644,0.127 -0.290688,0 -0.505177,-0.121356 -0.214489,-0.121355 -0.333022,-0.352777 -0.115711,-0.231422 -0.115711,-0.553155 z m 4.51908,0.92851 q -0.2286,0.08749 -0.510822,0.08749 -0.476955,0 -0.722488,-0.254 -0.245534,-0.256822 -0.245534,-0.75071 0,-0.488244 0.256822,-0.756355 0.256822,-0.268111 0.722489,-0.268111 0.248355,0 0.471311,0.07902 v 0.333022 q -0.256822,-0.05644 -0.420511,-0.05644 -0.293511,0 -0.440267,0.155223 -0.143933,0.155222 -0.143933,0.474133 v 0.06491 q 0,0.316088 0.141111,0.47131 0.141111,0.1524 0.4318,0.1524 0.163689,0 0.460022,-0.06491 z m 1.118304,0.0508 v -1.955798 h 0.423333 v 1.955798 z m 2.853973,0 -0.138289,-0.445911 h -0.668866 l -0.132644,0.445911 h -0.443089 l 0.688622,-1.955798 h 0.465666 l 0.688622,1.955798 z M 29.23504,34.83575 h 0.491066 l -0.248355,-0.818444 z m 2.447576,0.75071 v -1.617132 h -0.595489 v -0.338666 h 1.61431 v 0.338666 h -0.595488 v 1.617132 z m 2.072216,0 v -1.955798 h 1.286932 v 0.327377 h -0.863599 v 0.462844 h 0.702733 v 0.327378 h -0.702733 v 0.510822 h 0.863599 v 0.327377 z"
       id="text5"
       style="font-weight:bold;font-size:2.82222px;line-height:0.9;font-family:'Amazon Ember';-inkscape-font-specification:'Amazon Ember, Bold';text-align:center;letter-spacing:0.79375px;text-anchor:middle;fill:#f7f7f7;stroke-width:0.352777"
       aria-label="ASSOCIATE" /><g
       id="text3"
       style="font-weight:bold;font-size:4.93889px;line-height:0.9;font-family:'Amazon Ember';-inkscape-font-specification:'Amazon Ember, Bold';text-align:center;letter-spacing:0px;text-anchor:middle;fill:#f7f7f7;stroke-width:0.352777"
       aria-label="Solutions&#10;Architect"><path
         d="m 15.001621,22.364835 q -0.439561,-0.162983 -0.632178,-0.395111 -0.192617,-0.237067 -0.192617,-0.597606 0,-0.464256 0.340784,-0.740833 0.345722,-0.276578 0.923572,-0.276578 0.484011,0 0.948267,0.1778 v 0.563033 q -0.479072,-0.148167 -0.889,-0.148167 -0.582789,0 -0.582789,0.375356 0,0.138289 0.09878,0.227189 0.103716,0.0889 0.380294,0.187678 l 0.365478,0.13335 q 0.459317,0.167922 0.651933,0.395111 0.197556,0.22225 0.197556,0.582789 0,0.508706 -0.365478,0.805039 -0.365478,0.291395 -1.002594,0.291395 -0.276578,0 -0.553156,-0.05433 -0.276578,-0.04939 -0.474134,-0.138289 V 23.18963 q 0.246945,0.07408 0.528462,0.118533 0.281516,0.04445 0.508705,0.04445 0.291395,0 0.449439,-0.103717 0.158045,-0.108655 0.158045,-0.306211 0,-0.153106 -0.09878,-0.242006 -0.09384,-0.0889 -0.385233,-0.197555 z m 3.294235,1.570567 q -0.587728,0 -0.918633,-0.350661 -0.330906,-0.3556 -0.330906,-0.987778 0,-0.627239 0.330906,-0.9779 0.330905,-0.355601 0.918633,-0.355601 0.587728,0 0.918634,0.355601 0.330905,0.350661 0.330905,0.9779 0,0.632178 -0.330905,0.987778 -0.330906,0.350661 -0.918634,0.350661 z m 0,-0.553156 q 0.518584,0 0.518584,-0.785283 0,-0.780345 -0.518584,-0.780345 -0.518583,0 -0.518583,0.780345 0,0.785283 0.518583,0.785283 z m 2.923823,0.429684 q -0.207434,0.08396 -0.4445,0.08396 -0.666751,0 -0.666751,-0.745773 V 20.20654 h 0.721078 v 2.884312 q 0,0.138289 0.04445,0.197555 0.04939,0.05433 0.158045,0.05433 0.06914,0 0.187678,-0.01482 z m 2.173115,0.04939 -0.06914,-0.2667 q -0.439561,0.340783 -0.918633,0.340783 -0.335845,0 -0.523523,-0.197556 -0.187678,-0.202494 -0.187678,-0.553155 v -1.847145 h 0.721078 v 1.64465 q 0,0.40005 0.345723,0.40005 0.256822,0 0.503766,-0.158044 v -1.886656 h 0.721078 v 2.523773 z m 2.785536,-0.06421 q -0.2667,0.103717 -0.597606,0.103717 -0.419806,0 -0.6223,-0.197556 -0.197556,-0.197555 -0.197556,-0.612422 v -1.219906 h -0.380294 v -0.4445 l 0.40005,-0.07902 0.108655,-0.691445 h 0.592667 v 0.681567 h 0.681567 v 0.5334 h -0.681567 v 1.185334 q 0,0.158044 0.07902,0.22225 0.07902,0.06421 0.2667,0.06421 0.153106,0 0.350662,-0.02963 z m 0.464251,0.06421 v -2.523773 h 0.721078 v 2.523773 z m 0.360539,-2.913946 q -0.187678,0 -0.301273,-0.103716 -0.113594,-0.103717 -0.113594,-0.281517 0,-0.1778 0.113594,-0.281517 0.113595,-0.103716 0.301273,-0.103716 0.187677,0 0.301272,0.103716 0.113594,0.103717 0.113594,0.281517 0,0.1778 -0.113594,0.281517 -0.113595,0.103716 -0.301272,0.103716 z m 2.19287,2.988029 q -0.587728,0 -0.918634,-0.350661 -0.330905,-0.3556 -0.330905,-0.987778 0,-0.627239 0.330905,-0.9779 0.330906,-0.355601 0.918634,-0.355601 0.587728,0 0.918634,0.355601 0.330905,0.350661 0.330905,0.9779 0,0.632178 -0.330905,0.987778 -0.330906,0.350661 -0.918634,0.350661 z m 0,-0.553156 q 0.518583,0 0.518583,-0.785283 0,-0.780345 -0.518583,-0.780345 -0.518583,0 -0.518583,0.780345 0,0.785283 0.518583,0.785283 z m 3.432527,0.479073 V 22.20679 q 0,-0.202494 -0.0889,-0.296333 -0.0889,-0.09384 -0.271638,-0.09384 -0.271639,0 -0.538339,0.167922 v 1.876779 h -0.721078 v -2.523773 h 0.592666 l 0.06915,0.271639 q 0.4445,-0.345723 0.948267,-0.345723 0.350661,0 0.538339,0.192617 0.192616,0.187678 0.192616,0.538339 v 1.866901 z m 2.474382,-0.696384 q 0,-0.09878 -0.05927,-0.153105 -0.05433,-0.05433 -0.227189,-0.118534 L 34.43121,22.740191 q -0.301272,-0.118534 -0.434622,-0.291395 -0.13335,-0.172861 -0.13335,-0.439561 0,-0.335845 0.2667,-0.538339 0.271639,-0.207434 0.721078,-0.207434 0.414866,0 0.765528,0.162984 v 0.479072 q -0.375356,-0.113594 -0.701323,-0.113594 -0.202494,0 -0.296333,0.04939 -0.09384,0.04939 -0.09384,0.158044 0,0.08396 0.05433,0.138289 0.05927,0.04939 0.242005,0.123472 l 0.375356,0.153106 q 0.306211,0.123472 0.434622,0.286455 0.13335,0.162984 0.13335,0.424745 0,0.365478 -0.281517,0.592667 -0.276577,0.22225 -0.730955,0.22225 -0.508706,0 -0.898878,-0.202495 v -0.479072 q 0.48895,0.153106 0.893939,0.153106 0.3556,0 0.3556,-0.246945 z"
         id="path2" /><path
         d="m 16.814191,28.306319 -0.242006,-0.780344 h -1.170517 l -0.232127,0.780344 h -0.775406 l 1.205089,-3.42265 h 0.814917 l 1.205089,3.42265 z m -1.254478,-1.313744 h 0.859367 l -0.434622,-1.432278 z m 2.434877,1.313744 v -2.523772 h 0.592667 l 0.0889,0.375355 q 0.197556,-0.217311 0.370417,-0.306211 0.1778,-0.09384 0.375355,-0.09384 0.09384,0 0.197556,0.01482 v 0.66675 q -0.138289,-0.02963 -0.306211,-0.02963 -0.321028,0 -0.597606,0.113594 v 1.782939 z m 3.822705,-0.108655 q -0.13335,0.07902 -0.321028,0.118533 -0.187678,0.04445 -0.390173,0.04445 -0.602544,0 -0.923572,-0.335844 -0.316089,-0.335845 -0.316089,-0.968023 0,-0.627239 0.335845,-0.9779 0.335844,-0.350661 0.93345,-0.350661 0.360539,0 0.66675,0.158044 v 0.479073 q -0.291395,-0.08396 -0.5334,-0.08396 -0.345722,0 -0.508706,0.1778 -0.162983,0.172861 -0.162983,0.553155 v 0.06915 q 0,0.375355 0.158044,0.553155 0.162984,0.172862 0.498828,0.172862 0.242006,0 0.563034,-0.0889 z m 2.133598,0.108655 v -1.654528 q 0,-0.202494 -0.0889,-0.296333 -0.0889,-0.09384 -0.271639,-0.09384 -0.271639,0 -0.538339,0.167922 v 1.876778 h -0.721078 v -3.654778 h 0.721078 v 1.358195 q 0.424745,-0.301273 0.889,-0.301273 0.350661,0 0.538339,0.192617 0.192617,0.187678 0.192617,0.538339 v 1.8669 z m 1.422398,0 v -2.523772 h 0.721078 v 2.523772 z m 0.360539,-2.913945 q -0.187678,0 -0.301272,-0.103716 -0.113595,-0.103717 -0.113595,-0.281517 0,-0.1778 0.113595,-0.281517 0.113594,-0.103716 0.301272,-0.103716 0.187678,0 0.301272,0.103716 0.113595,0.103717 0.113595,0.281517 0,0.1778 -0.113595,0.281517 -0.113594,0.103716 -0.301272,0.103716 z m 2.573165,2.84974 q -0.2667,0.103717 -0.597606,0.103717 -0.419806,0 -0.6223,-0.197556 -0.197556,-0.197556 -0.197556,-0.612422 v -1.219906 h -0.380294 v -0.4445 l 0.40005,-0.07902 0.108656,-0.691444 h 0.592666 v 0.681567 h 0.681567 v 0.5334 h -0.681567 v 1.185333 q 0,0.158045 0.07902,0.22225 0.07902,0.06421 0.2667,0.06421 0.153105,0 0.350661,-0.02963 z m 0.982834,-1.02235 q 0.01976,0.325966 0.197556,0.474133 0.1778,0.143228 0.558095,0.143228 0.330905,0 0.770466,-0.123472 v 0.479072 q -0.172861,0.0889 -0.414866,0.138289 -0.237067,0.04939 -0.493889,0.04939 -0.627239,0 -0.958145,-0.340784 -0.325967,-0.340783 -0.325967,-0.997655 0,-0.632178 0.325967,-0.982839 0.325967,-0.350662 0.903817,-0.350662 0.48895,0 0.750711,0.271639 0.2667,0.2667 0.2667,0.765528 0,0.108656 -0.01482,0.246945 -0.01482,0.138289 -0.03457,0.227189 z m 0.538339,-1.012473 q -0.242005,0 -0.385233,0.148167 -0.138289,0.143228 -0.158045,0.419806 h 0.968023 v -0.08396 q 0,-0.484011 -0.424745,-0.484011 z m 3.417714,1.990373 q -0.13335,0.07902 -0.321028,0.118533 -0.187678,0.04445 -0.390173,0.04445 -0.602544,0 -0.923572,-0.335844 -0.316089,-0.335845 -0.316089,-0.968023 0,-0.627239 0.335845,-0.9779 0.335844,-0.350661 0.93345,-0.350661 0.360539,0 0.66675,0.158044 v 0.479073 q -0.291395,-0.08396 -0.5334,-0.08396 -0.345723,0 -0.508706,0.1778 -0.162983,0.172861 -0.162983,0.553155 v 0.06915 q 0,0.375355 0.158044,0.553155 0.162984,0.172862 0.498828,0.172862 0.242006,0 0.563034,-0.0889 z m 2.113845,0.04445 q -0.2667,0.103717 -0.597605,0.103717 -0.419806,0 -0.622301,-0.197556 -0.197555,-0.197556 -0.197555,-0.612422 v -1.219906 h -0.380295 v -0.4445 l 0.40005,-0.07902 0.108656,-0.691444 h 0.592667 v 0.681567 h 0.681567 v 0.5334 h -0.681567 v 1.185333 q 0,0.158045 0.07902,0.22225 0.07902,0.06421 0.2667,0.06421 0.153106,0 0.350661,-0.02963 z"
         id="path4" /></g><g
       id="g8"
       transform="translate(0.13229167,-0.52916667)"><path
         id="path5"
         style="display:inline;opacity:1;fill:#f7981e;stroke-width:0.35742"
         transform="matrix(0.97418587,0,0,1,21.151987,-12.964584)"
         d="m 10.608588,24.423128 -1.7450464,1.007503 -1.7450469,-1.007503 10e-8,-2.015007 1.7450468,-1.007503 1.7450464,1.007503 z" /><path
         style="opacity:1;fill:none;fill-opacity:1;stroke:#ffffff;stroke-width:0.353;stroke-dasharray:none;stroke-opacity:1"
         d="m 28.999218,10.605901 0.477496,0.49146 1.153947,-1.2475519"
         id="path7" /><path
         style="font-weight:300;font-size:3.88056px;font-family:'Amazon Ember';-inkscape-font-specification:'Amazon Ember Light';letter-spacing:0px;fill:#ffffff;stroke-width:2.5"
         d="m 19.594338,15.544447 q -0.240595,0.108656 -0.48507,0.108656 -0.450145,0 -0.682978,-0.256117 -0.232834,-0.259998 -0.232834,-0.76059 0,-0.496712 0.236714,-0.756709 0.236714,-0.263878 0.686859,-0.263878 0.240595,0 0.454026,0.09313 v 0.182386 q -0.213431,-0.06985 -0.442384,-0.06985 -0.368653,0 -0.535517,0.190148 -0.162984,0.186267 -0.162984,0.601487 v 0.04657 q 0,0.403578 0.166864,0.597606 0.166864,0.190148 0.523876,0.190148 0.213431,0 0.473428,-0.08537 z m 0.496711,-0.873126 q 0.0039,0.407459 0.178506,0.601487 0.174625,0.194028 0.539397,0.194028 0.333729,0 0.640293,-0.13582 v 0.182386 q -0.27552,0.155223 -0.655815,0.155223 -0.461787,0 -0.69462,-0.259998 -0.232834,-0.263878 -0.232834,-0.779992 0,-0.488951 0.232834,-0.756709 0.236714,-0.27164 0.659695,-0.27164 0.353131,0 0.539398,0.201789 0.190147,0.20179 0.190147,0.578204 0,0.174625 -0.02328,0.291042 z m 0.648053,-0.873126 q -0.613128,0 -0.648053,0.69462 h 1.17969 q 0.0039,-0.05433 0.0039,-0.128058 0,-0.279401 -0.13582,-0.422981 -0.13582,-0.143581 -0.399698,-0.143581 z M 21.977,15.610416 v -1.951921 h 0.194028 l 0.02328,0.283281 q 0.147461,-0.162984 0.287161,-0.228953 0.143581,-0.06985 0.322087,-0.06985 0.06597,0 0.159103,0.01164 v 0.197909 q -0.100895,-0.0078 -0.182386,-0.0078 -0.178506,0 -0.318206,0.06597 -0.13582,0.06597 -0.263878,0.213431 v 1.486254 z m 2.405948,-0.04269 q -0.162983,0.06597 -0.391936,0.06597 -0.228953,0 -0.349251,-0.120298 -0.120297,-0.124178 -0.120297,-0.357011 V 13.852523 H 23.156691 V 13.6973 l 0.372534,-0.03492 0.03104,-0.570442 h 0.182387 v 0.566562 h 0.620889 v 0.194028 h -0.620889 v 1.292226 q 0,0.159103 0.06597,0.225073 0.06985,0.06597 0.228953,0.06597 0.159103,0 0.34537,-0.04657 z m 0.42686,0.04269 V 13.658495 H 25.031 v 1.951921 z m 0.112536,-2.371022 q -0.07761,0 -0.124178,-0.04657 -0.04269,-0.04657 -0.04269,-0.124178 0,-0.07761 0.04269,-0.124178 0.04657,-0.04657 0.124178,-0.04657 0.07761,0 0.120297,0.04657 0.04657,0.04657 0.04657,0.124178 0,0.07761 -0.04657,0.124178 -0.04269,0.04657 -0.120297,0.04657 z m 0.892532,2.371022 V 13.852523 H 25.434581 V 13.6973 l 0.380295,-0.03492 v -0.446264 q 0,-0.259998 0.135819,-0.395817 0.13582,-0.13582 0.388056,-0.13582 0.09313,0 0.190148,0.0194 0.100894,0.01552 0.170744,0.04269 v 0.182387 q -0.194028,-0.04269 -0.333728,-0.04269 -0.174625,0 -0.252236,0.07373 -0.07761,0.06985 -0.07761,0.232834 v 0.465667 h 1.265063 v 1.951921 h -0.221192 v -1.757893 h -1.043871 v 1.757893 z m 1.377598,-2.371022 q -0.07761,0 -0.124178,-0.04657 -0.04269,-0.04657 -0.04269,-0.124178 0,-0.07761 0.04269,-0.124178 0.04657,-0.04657 0.124178,-0.04657 0.07761,0 0.120298,0.04657 0.04657,0.04657 0.04657,0.124178 0,0.07761 -0.04657,0.124178 -0.04269,0.04657 -0.120298,0.04657 z m 0.85372,1.431927 q 0.0039,0.407459 0.178506,0.601487 0.174625,0.194028 0.539397,0.194028 0.333729,0 0.640293,-0.13582 v 0.182386 q -0.27552,0.155223 -0.655815,0.155223 -0.461786,0 -0.69462,-0.259998 -0.232834,-0.263878 -0.232834,-0.779992 0,-0.488951 0.232834,-0.756709 0.236714,-0.27164 0.659695,-0.27164 0.353131,0 0.539398,0.201789 0.190147,0.20179 0.190147,0.578204 0,0.174625 -0.02328,0.291042 z m 0.648053,-0.873126 q -0.613128,0 -0.648053,0.69462 h 1.17969 q 0.0039,-0.05433 0.0039,-0.128058 0,-0.279401 -0.13582,-0.422981 -0.13582,-0.143581 -0.399698,-0.143581 z m 2.650422,1.812221 -0.02328,-0.217311 q -0.14358,0.120297 -0.322086,0.190147 -0.174625,0.06985 -0.337609,0.06985 -0.384175,0 -0.609248,-0.267759 -0.221192,-0.271639 -0.221192,-0.741187 0,-0.481189 0.225073,-0.76059 0.225072,-0.283281 0.613128,-0.283281 0.360892,0 0.651934,0.256117 v -1.117601 h 0.221192 v 2.871614 z m -0.632531,-0.159103 q 0.291042,0 0.609247,-0.248355 v -1.148646 q -0.162983,-0.131939 -0.314325,-0.190148 -0.147461,-0.06209 -0.314325,-0.06209 -0.310445,0 -0.473429,0.209551 -0.159103,0.20955 -0.159103,0.620889 0,0.818798 0.651935,0.818798 z"
         id="text2"
         aria-label="certified" /><path
         style="font-size:5.64444px;font-family:'Amazon Ember';-inkscape-font-specification:'Amazon Ember';letter-spacing:-0.132292px;fill:#ffffff;stroke-width:2.5"
         d="m 20.355982,12.038542 -0.04516,-0.293511 q -0.2032,0.174978 -0.451556,0.270933 -0.242711,0.09596 -0.485421,0.09596 -0.400756,0 -0.643467,-0.225778 -0.237066,-0.231422 -0.237066,-0.615244 0,-0.412044 0.293511,-0.654755 0.293511,-0.248355 0.790221,-0.248355 0.327378,0 0.7112,0.09596 V 10.09121 q 0,-0.3047998 -0.141111,-0.4289775 -0.135467,-0.1241777 -0.468489,-0.1241777 -0.479777,0 -0.993421,0.1749776 V 9.3179216 q 0.2032,-0.1072443 0.496711,-0.1636887 0.29351,-0.062089 0.592666,-0.062089 0.536222,0 0.790221,0.2257776 0.254,0.2201332 0.254,0.6773329 v 2.0432875 z m -0.846666,-0.349955 q 0.383822,0 0.778933,-0.287867 v -0.575733 q -0.293511,-0.07338 -0.598311,-0.07338 -0.637822,0 -0.637822,0.491067 0,0.214488 0.118534,0.333022 0.118533,0.112889 0.338666,0.112889 z m 4.270377,0.349955 -0.609599,-2.240843 -0.603955,2.240843 H 22.001695 L 21.064718,9.1768106 h 0.587021 l 0.643467,2.2916424 0.609599,-2.2916424 h 0.5588 l 0.609599,2.3198654 0.6604,-2.3198654 h 0.570088 l -0.959555,2.8617314 z m 3.203567,-0.767644 q 0,-0.135467 -0.09031,-0.220133 -0.08467,-0.08467 -0.316088,-0.169333 l -0.479778,-0.180623 q -0.626532,-0.231422 -0.626532,-0.7902212 0,-0.3668886 0.282222,-0.5926662 0.287866,-0.2257776 0.75071,-0.2257776 0.445911,0 0.841022,0.1806221 v 0.3951108 q -0.440267,-0.141111 -0.8128,-0.141111 -0.541866,0 -0.541866,0.3668886 0,0.1467555 0.09031,0.2314225 0.09031,0.08467 0.3556,0.186266 l 0.440266,0.169333 q 0.333022,0.129822 0.479778,0.310445 0.146755,0.174977 0.146755,0.457199 0,0.400755 -0.299155,0.637822 -0.299156,0.237066 -0.795866,0.237066 -0.5588,0 -0.970844,-0.214488 v -0.395111 q 0.530577,0.174978 0.982132,0.174978 0.276578,0 0.417689,-0.107245 0.146755,-0.107244 0.146755,-0.310444 z"
         id="text1"
         aria-label="aws" /></g></g><g
     id="layer4"
     style="display:none"><path
       id="path1-2"
       style="display:inline;vector-effect:non-scaling-stroke;fill:none;fill-opacity:1;stroke:#ff00ff;stroke-width:0.264583;stroke-dasharray:none;stroke-opacity:1;-inkscape-stroke:hairline"
       d="M 21.389363,0.98598665 C 14.498698,4.9614938 7.6111125,8.9423822 0.71852718,12.914532 c 0,8.057245 2.1e-7,16.11449 0,24.171734 6.98026052,4.022507 13.95508782,8.054504 20.93370082,12.079893 6.977318,-4.025333 13.950754,-8.057441 20.929719,-12.079893 0,-8.057244 0,-16.114489 0,-24.171734 C 35.602984,8.8920775 28.629546,4.8599763 21.652228,0.8346396 l -0.176717,0.10174811 z" /></g></svg>
