<?xml version="1.0" encoding="UTF-8" standalone="no"?>
<!-- Created with Inkscape (http://www.inkscape.org/) -->

<svg
   width="90mm"
   height="55mm"
   viewBox="0 0 90 55"
   version="1.1"
   id="svg1"
   xml:space="preserve"
   inkscape:version="1.3.2 (091e20e, 2023-11-25)"
   sodipodi:docname="AWSCloud-sticker.svg"
   inkscape:export-filename="AWSCloud-sticker.png"
   inkscape:export-xdpi="96"
   inkscape:export-ydpi="96"
   xmlns:inkscape="http://www.inkscape.org/namespaces/inkscape"
   xmlns:sodipodi="http://sodipodi.sourceforge.net/DTD/sodipodi-0.dtd"
   xmlns="http://www.w3.org/2000/svg"
   xmlns:svg="http://www.w3.org/2000/svg"><sodipodi:namedview
     id="namedview1"
     pagecolor="#ffffff"
     bordercolor="#000000"
     borderopacity="0.25"
     inkscape:showpageshadow="2"
     inkscape:pageopacity="0.0"
     inkscape:pagecheckerboard="true"
     inkscape:deskcolor="#d1d1d1"
     inkscape:document-units="mm"
     showguides="true"
     inkscape:zoom="2"
     inkscape:cx="147.25"
     inkscape:cy="90.5"
     inkscape:window-width="1920"
     inkscape:window-height="1027"
     inkscape:window-x="0"
     inkscape:window-y="25"
     inkscape:window-maximized="1"
     inkscape:current-layer="layer4" /><defs
     id="defs1" /><g
     inkscape:label="Print"
     inkscape:groupmode="layer"
     id="layer1"><g
       inkscape:groupmode="layer"
       id="layer2"
       inkscape:label="Cloud"><path
         id="path4"
         style="display:inline;opacity:1;vector-effect:non-scaling-stroke;fill:#ffffff;stroke-width:0.264583;stroke-linecap:round;stroke-linejoin:round;-inkscape-stroke:hairline"
         inkscape:label="bg"
         d="M 39.917969,0.36328125 C 31.894992,0.61720131 24.303944,6.0655261 21.505859,13.589844 12.641012,13.791655 4.3064308,20.384138 2.2262077,29.032675 c -1.94725294,7.416054 0.562125,15.888135 6.4909504,20.821831 4.2096209,3.63977 9.8998869,5.442701 15.4379199,5.008431 14.401068,-0.04265 28.805195,0.0039 43.204056,-0.176099 C 76.38667,53.875103 84.424278,47.042666 86.942879,38.375268 89.278128,30.773833 87.296715,22.047236 81.930054,16.181846 76.182483,9.786519 66.697209,6.9789049 58.430932,9.4660012 57.822421,9.843061 57.681115,8.9643677 57.316363,8.6318748 53.315875,3.28147 46.609284,0.02670508 39.917969,0.36328125 Z" /><path
         id="path5"
         style="display:inline;opacity:1;fill:none;stroke:#ff9900;stroke-width:1.4;stroke-linecap:round;stroke-linejoin:round;stroke-dasharray:none;stroke-opacity:1"
         inkscape:label="outline"
         d="M 40.759269,3.5207153 C 32.725328,3.538281 25.735328,9.0238185 23.808366,16.823263 23.286419,16.775304 22.762581,16.750819 22.238436,16.749882 12.57348,16.750044 4.7386051,24.58515 4.7387288,34.250106 4.7552533,43.691829 12.25864,51.418163 21.695833,51.711056 L 66.939583,51.5922 C 77.057977,50.472105 84.7205,41.930185 84.739014,31.75 84.738911,20.704451 75.78475,11.75029 64.739201,11.750187 61.92056,11.753369 59.134423,12.352298 56.563472,13.507703 53.663938,7.4079196 47.513131,3.5211037 40.759269,3.5207153 Z"
         sodipodi:nodetypes="cccccccccc" /></g><g
       id="g4"
       transform="matrix(0.16685206,0,0,0.16685206,20.138141,19.157506)"
       inkscape:label="AWS Logo"
       style="display:inline;stroke-width:1.58572">
	<path
   class="st0"
   d="m 86.4,66.4 c 0,3.7 0.4,6.7 1.1,8.9 0.8,2.2 1.8,4.6 3.2,7.2 0.5,0.8 0.7,1.6 0.7,2.3 0,1 -0.6,2 -1.9,3 L 83.2,92 c -0.9,0.6 -1.8,0.9 -2.6,0.9 -1,0 -2,-0.5 -3,-1.4 C 76.2,90 75,88.4 74,86.8 73,85.1 72,83.2 70.9,80.9 63.1,90.1 53.3,94.7 41.5,94.7 c -8.4,0 -15.1,-2.4 -20,-7.2 -4.9,-4.8 -7.4,-11.2 -7.4,-19.2 0,-8.5 3,-15.4 9.1,-20.6 6.1,-5.2 14.2,-7.8 24.5,-7.8 3.4,0 6.9,0.3 10.6,0.8 3.7,0.5 7.5,1.3 11.5,2.2 V 35.6 C 69.8,28 68.2,22.7 65.1,19.6 61.9,16.5 56.5,15 48.8,15 c -3.5,0 -7.1,0.4 -10.8,1.3 -3.7,0.9 -7.3,2 -10.8,3.4 -1.6,0.7 -2.8,1.1 -3.5,1.3 -0.7,0.2 -1.2,0.3 -1.6,0.3 -1.4,0 -2.1,-1 -2.1,-3.1 V 13.3 C 20,11.7 20.2,10.5 20.7,9.8 21.2,9.1 22.1,8.4 23.5,7.7 27,5.9 31.2,4.4 36.1,3.2 41,1.9 46.2,1.3 51.7,1.3 63.6,1.3 72.3,4 77.9,9.4 83.4,14.8 86.2,23 86.2,34 V 66.4 Z M 45.8,81.6 c 3.3,0 6.7,-0.6 10.3,-1.8 3.6,-1.2 6.8,-3.4 9.5,-6.4 1.6,-1.9 2.8,-4 3.4,-6.4 0.6,-2.4 1,-5.3 1,-8.7 v -4.2 c -2.9,-0.7 -6,-1.3 -9.2,-1.7 -3.2,-0.4 -6.3,-0.6 -9.4,-0.6 -6.7,0 -11.6,1.3 -14.9,4 -3.3,2.7 -4.9,6.5 -4.9,11.5 0,4.7 1.2,8.2 3.7,10.6 2.4,2.5 5.9,3.7 10.5,3.7 z m 80.3,10.8 c -1.8,0 -3,-0.3 -3.8,-1 -0.8,-0.6 -1.5,-2 -2.1,-3.9 L 96.7,10.2 c -0.6,-2 -0.9,-3.3 -0.9,-4 0,-1.6 0.8,-2.5 2.4,-2.5 h 9.8 c 1.9,0 3.2,0.3 3.9,1 0.8,0.6 1.4,2 2,3.9 l 16.8,66.2 15.6,-66.2 c 0.5,-2 1.1,-3.3 1.9,-3.9 0.8,-0.6 2.2,-1 4,-1 h 8 c 1.9,0 3.2,0.3 4,1 0.8,0.6 1.5,2 1.9,3.9 l 15.8,67 17.3,-67 c 0.6,-2 1.3,-3.3 2,-3.9 0.8,-0.6 2.1,-1 3.9,-1 h 9.3 c 1.6,0 2.5,0.8 2.5,2.5 0,0.5 -0.1,1 -0.2,1.6 -0.1,0.6 -0.3,1.4 -0.7,2.5 l -24.1,77.3 c -0.6,2 -1.3,3.3 -2.1,3.9 -0.8,0.6 -2.1,1 -3.8,1 h -8.6 c -1.9,0 -3.2,-0.3 -4,-1 -0.8,-0.7 -1.5,-2 -1.9,-4 L 156,23 140.6,87.4 c -0.5,2 -1.1,3.3 -1.9,4 -0.8,0.7 -2.2,1 -4,1 z m 128.5,2.7 c -5.2,0 -10.4,-0.6 -15.4,-1.8 -5,-1.2 -8.9,-2.5 -11.5,-4 -1.6,-0.9 -2.7,-1.9 -3.1,-2.8 -0.4,-0.9 -0.6,-1.9 -0.6,-2.8 v -5.1 c 0,-2.1 0.8,-3.1 2.3,-3.1 0.6,0 1.2,0.1 1.8,0.3 0.6,0.2 1.5,0.6 2.5,1 3.4,1.5 7.1,2.7 11,3.5 4,0.8 7.9,1.2 11.9,1.2 6.3,0 11.2,-1.1 14.6,-3.3 3.4,-2.2 5.2,-5.4 5.2,-9.5 0,-2.8 -0.9,-5.1 -2.7,-7 -1.8,-1.9 -5.2,-3.6 -10.1,-5.2 L 246,52 c -7.3,-2.3 -12.7,-5.7 -16,-10.2 -3.3,-4.4 -5,-9.3 -5,-14.5 0,-4.2 0.9,-7.9 2.7,-11.1 1.8,-3.2 4.2,-6 7.2,-8.2 3,-2.3 6.4,-4 10.4,-5.2 4,-1.2 8.2,-1.7 12.6,-1.7 2.2,0 4.5,0.1 6.7,0.4 2.3,0.3 4.4,0.7 6.5,1.1 2,0.5 3.9,1 5.7,1.6 1.8,0.6 3.2,1.2 4.2,1.8 1.4,0.8 2.4,1.6 3,2.5 0.6,0.8 0.9,1.9 0.9,3.3 v 4.7 c 0,2.1 -0.8,3.2 -2.3,3.2 -0.8,0 -2.1,-0.4 -3.8,-1.2 -5.7,-2.6 -12.1,-3.9 -19.2,-3.9 -5.7,0 -10.2,0.9 -13.3,2.8 -3.1,1.9 -4.7,4.8 -4.7,8.9 0,2.8 1,5.2 3,7.1 2,1.9 5.7,3.8 11,5.5 l 14.2,4.5 c 7.2,2.3 12.4,5.5 15.5,9.6 3.1,4.1 4.6,8.8 4.6,14 0,4.3 -0.9,8.2 -2.6,11.6 -1.8,3.4 -4.2,6.4 -7.3,8.8 -3.1,2.5 -6.8,4.3 -11.1,5.6 -4.5,1.4 -9.2,2.1 -14.3,2.1 z"
   id="path1"
   inkscape:label="aws"
   style="stroke-width:1.58572" />
	<g
   id="g3"
   style="stroke-width:1.58572">
		<path
   class="st1"
   d="M 273.5,143.7 C 240.6,168 192.8,180.9 151.7,180.9 94.1,180.9 42.2,159.6 3,124.2 c -3.1,-2.8 -0.3,-6.6 3.4,-4.4 42.4,24.6 94.7,39.5 148.8,39.5 36.5,0 76.6,-7.6 113.5,-23.2 5.5,-2.5 10.2,3.6 4.8,7.6 z"
   id="path2"
   inkscape:label="swoosh"
   style="stroke-width:1.58572" />
		<path
   class="st1"
   d="m 287.2,128.1 c -4.2,-5.4 -27.8,-2.6 -38.5,-1.3 -3.2,0.4 -3.7,-2.4 -0.8,-4.5 18.8,-13.2 49.7,-9.4 53.3,-5 3.6,4.5 -1,35.4 -18.6,50.2 -2.7,2.3 -5.3,1.1 -4.1,-1.9 4,-9.9 12.9,-32.2 8.7,-37.5 z"
   id="path3"
   inkscape:label="arrowhead"
   style="stroke-width:1.58572" />
	</g>
</g></g><g
     inkscape:groupmode="layer"
     id="layer4"
     inkscape:label="Cut"><path
       id="path6"
       style="display:inline;opacity:1;vector-effect:non-scaling-stroke;fill:none;stroke:#ff00ff;stroke-width:0.264583;stroke-linecap:round;stroke-linejoin:round;stroke-dasharray:none;stroke-opacity:1;-inkscape-stroke:hairline"
       inkscape:label="cutline"
       d="M 39.953125,1.421875 C 32.104577,1.6634174 24.697905,7.1659134 22.253906,14.636719 14.223235,14.524914 6.4455498,19.934623 3.7992148,27.526821 1.32538,34.262751 2.8661093,42.341114 7.8464617,47.552674 11.82439,51.852671 17.779888,54.231876 23.628125,53.804226 38.038617,53.779192 52.450658,53.776617 66.860002,53.669423 72.323553,53.321422 77.489218,50.534386 81.154727,46.528582 85.397815,41.890611 87.48331,35.383241 86.691452,29.143468 85.978046,22.829596 82.402819,16.898697 77.081973,13.405361 71.728624,9.7860962 64.754184,8.6358483 58.556094,10.534096 58.104546,10.567778 57.488505,11.163259 57.312043,10.487839 53.668462,4.694193 46.800485,1.0653466 39.953125,1.421875 Z" /></g><style
     type="text/css"
     id="style1">
	.st0{fill:#252F3E;}
	.st1{fill-rule:evenodd;clip-rule:evenodd;fill:#FF9900;}
</style></svg>
